<?xml version="1.0" standalone="no"?>
<!DOCTYPE svg PUBLIC "-//W3C//DTD SVG 20010904//EN"
 "http://www.w3.org/TR/2001/REC-SVG-20010904/DTD/svg10.dtd">
<svg version="1.0" xmlns="http://www.w3.org/2000/svg"
 width="306.000000pt" height="216.000000pt" viewBox="0 0 306.000000 216.000000"
 preserveAspectRatio="xMidYMid meet">
<metadata>
Created by potrace 1.13, written by Peter Selinger 2001-2015
</metadata>
<g transform="translate(0.000000,216.000000) scale(0.100000,-0.100000)"
fill="#000000" stroke="none">
<path d="M2738 1073 c-21 -2 -38 -9 -38 -14 0 -5 -11 -7 -24 -3 -28 7 -256
-24 -272 -37 -6 -5 -13 -6 -16 -3 -5 4 -85 -7 -143 -20 -11 -2 -51 -11 -90
-20 -105 -24 -226 -58 -221 -63 2 -3 38 5 80 16 71 20 112 28 326 65 47 9 150
23 230 32 130 14 210 33 210 48 0 4 -1 5 -2 4 -2 -1 -20 -3 -40 -5z"/>
<path d="M277 492 c-14 -16 -60 -125 -72 -172 -2 -8 -13 -41 -25 -74 -11 -32
-19 -61 -15 -64 3 -3 5 1 5 9 0 11 2 11 10 -1 10 -15 10 -15 14 52 2 27 14 32
79 31 56 -1 62 -3 68 -25 4 -12 8 -18 10 -13 1 6 5 -12 8 -40 5 -41 10 -50 26
-50 31 0 45 39 30 83 -7 20 -20 38 -28 40 -8 2 -18 15 -22 29 -3 14 -9 23 -12
20 -10 -10 18 -67 33 -67 8 0 15 -10 16 -22 1 -13 2 -32 3 -43 1 -21 -14 -37
-27 -29 -4 3 -8 20 -8 39 0 19 -8 49 -17 68 -17 33 -18 33 -75 29 -37 -3 -58
-1 -58 6 0 14 50 172 54 172 2 0 12 -31 21 -70 9 -38 21 -70 26 -70 11 0 12
24 2 34 -11 10 -43 119 -37 125 8 8 24 -22 24 -45 0 -12 7 -37 16 -55 14 -32
13 -19 -3 33 -4 15 -3 19 6 13 19 -11 4 35 -18 58 -17 17 -18 17 -34 -1z"/>
<path d="M2043 339 c-36 -23 -67 -90 -57 -122 19 -61 79 -106 116 -86 19 10
19 12 -11 30 -17 10 -37 30 -43 44 -13 28 -28 33 -28 10 0 -9 7 -18 15 -21 8
-4 12 -10 9 -15 -3 -5 0 -9 6 -9 6 0 8 -5 4 -12 -5 -7 -2 -9 8 -6 8 4 20 3 27
-2 10 -5 9 -9 -3 -13 -17 -7 -60 31 -84 71 -10 18 -10 22 0 22 9 0 8 4 -2 11
-12 9 -11 10 7 6 13 -3 20 -1 17 7 -3 7 9 10 38 8 34 -2 50 2 73 21 29 24 29
25 12 51 -21 32 -59 34 -104 5z"/>
</g>
</svg>
